<svg width="40" height="40" fill="none" xmlns="http://www.w3.org/2000/svg"><circle cx="20" cy="20" r="20" fill="#7E8385"/><path fill-rule="evenodd" clip-rule="evenodd" d="M19.722 26.945h1.554s.47-.045.71-.271c.22-.208.213-.598.213-.598s-.03-1.827.938-2.097c.954-.266 2.18 1.766 3.477 2.547.982.592 1.727.462 1.727.462l3.472-.043s1.816-.099.956-1.35c-.071-.102-.503-.925-2.582-2.618-2.177-1.771-1.885-1.484.737-4.547 1.598-1.865 2.235-3.005 2.036-3.492-.19-.465-1.365-.343-1.365-.343l-3.91.021s-.29-.034-.504.079c-.21.11-.345.367-.345.367s-.619 1.444-1.444 2.672c-1.741 2.59-2.437 2.727-2.721 2.567-.662-.375-.497-1.506-.497-2.31 0-2.511.435-3.558-.845-3.829-.425-.09-.739-.149-1.826-.16-1.395-.011-2.576.004-3.243.292-.446.19-.789.616-.579.641.258.03.843.138 1.154.508.4.478.387 1.55.387 1.55s.23 2.956-.538 3.322c-.526.252-1.25-.262-2.8-2.613-.796-1.204-1.396-2.535-1.396-2.535s-.115-.248-.322-.382c-.25-.161-.6-.213-.6-.213l-3.718.024s-.558.013-.763.226c-.182.19-.015.58-.015.58s2.908 5.965 6.201 8.97c3.021 2.754 6.45 2.573 6.45 2.573z" fill="#F2F2F2"/></svg>